<?xml version="1.0" encoding="utf-8" ?>
<svg xmlns="http://www.w3.org/2000/svg" xmlns:xlink="http://www.w3.org/1999/xlink" width="512" height="512">
	<path fill="white" d="M199.169 185.857L198.999 46.2744C199.001 38.5983 198.896 30.9097 199.216 23.239C213.147 23.686 230.095 23.9085 243.977 23.1626L243.986 199.442C243.8 216.66 243.573 233.904 244.267 251.115C244.873 266.133 243.698 261.722 228.63 253.019L130.102 195.416C121.582 190.415 112.707 183.576 103.576 179.997C94.8754 182.833 97.5921 187.137 97.6824 195.419L98.2254 254.356C98.2904 261.732 98.2101 269.154 98.5786 276.52C103.077 281.094 145.542 304.53 153.143 308.998L197.81 335.048C213.423 344.105 228.694 353.276 237.301 369.792C246.055 386.589 243.134 401.995 243.818 419.941C252.053 420.536 260.289 420.408 268.536 420.744C268.745 417.591 268.423 414.411 268.387 411.253C267.833 361.625 281.233 354.2 320.157 331.188L397.947 285.904C403.198 282.831 408.627 279.844 413.499 276.189C414.063 266.252 413.888 256.302 413.889 246.352L413.882 203.646C413.88 200.169 414.527 185.156 413.778 182.984C410.981 174.872 390.829 189.921 386.989 192.235L292.497 247.371C285.514 251.373 275.86 258.565 268.426 260.488C268.103 257.29 268.346 253.887 268.351 250.667L268.357 42.7145C268.356 36.3817 268.196 29.999 268.487 23.6731C283.139 24.0264 298.393 23.1071 313.338 23.4364L313.256 43.125L313.276 186.122C322.112 181.526 330.613 175.98 339.206 170.928L389.617 141.55C411.132 129.152 405.014 129.192 429.358 129.183C439.684 129.179 450.123 128.839 460.418 129.617C460.698 141.99 460.514 154.399 460.513 166.776L460.517 262.215C460.516 280.959 460.726 294.978 446.451 309.674C438.317 318.049 427.051 322.399 417.136 328.252L322.556 382.985C306.721 392.331 287.938 403.148 282.13 421.95C278.503 433.695 280.176 471.068 280.631 485.046C264.516 484.455 248.233 484.528 232.109 484.869C232.687 470.416 233.436 445.588 232.004 431.37C229.689 408.395 210.261 395.6 192.239 384.916L97.5367 329.871C57.2483 306.467 51.0183 304.485 51.0201 254.486L51.0184 160.323C51.0156 150.02 50.521 139.493 51.5437 129.24C60.7598 129.112 69.9869 129.195 79.2042 129.192C105.652 129.182 100.274 129.205 123.349 142.385L170.89 169.919C180.215 175.329 189.518 181.06 199.169 185.857Z"/>
	<path fill="white" d="M120.422 265.739C120.155 262.641 120.287 259.442 120.287 256.334L120.277 224.668C120.276 220.921 120.146 217.13 120.542 213.4C125.476 216.215 130.296 219.277 135.183 222.179L212.312 267.391C235.641 280.684 243.736 284.675 243.693 313.931L243.652 330.659C243.649 334.022 244.685 339.088 244.127 342.179C240.898 340.141 237.979 337.237 235.058 334.762C223.098 324.622 209.461 317.461 195.917 309.702L164.589 291.525C149.791 283.03 135.432 273.866 120.422 265.739Z"/>
	<path fill="white" d="M268.889 341.781C267.864 335.428 267.73 302.771 268.952 296.78C272.795 277.935 296.391 268.916 311.052 260.483L359.605 232.105C370.143 226.034 381.119 220.466 391.262 213.74C392.131 214.49 391.279 253.026 391.67 266.233C384.096 269.169 375.642 275.099 368.379 279.112C351.605 288.381 335.141 298.153 318.644 307.903C304.495 316.266 289.201 323.931 276.862 334.943C274.371 337.165 271.928 339.707 269.174 341.589L268.889 341.781Z"/>
</svg>
